/* XPM */
static char *background1684332383[] = {
/* columns rows colors chars-per-pixel */
"32 32 30 1 ",
"  c #358B6B",
". c #368C6C",
"X c #378C6C",
"o c #398D6D",
"O c #3F9171",
"+ c #429272",
"@ c #449474",
"# c #479676",
"$ c #499777",
"% c #4A9878",
"& c #4B9878",
"* c #4F9A7A",
"= c #519C7C",
"- c #539D7D",
"; c #549E7E",
": c #569F7F",
"> c #579F7F",
", c #58A080",
"< c #59A081",
"1 c #5AA181",
"2 c #5BA183",
"3 c #5CA284",
"4 c #5DA285",
"5 c #60A488",
"6 c #6CA88C",
"7 c #6DA88C",
"8 c #6EA98D",
"9 c #72AA8F",
"0 c #76AC92",
"q c #7DAF96",
/* pixels */
",,,,,,,,,,,,,,,,,,,,,,,,,,,,,>,,",
",,,,,,,,,>,,,,,,,,,,,,,,,,>4,5,,",
",,,,,,,,>< <,,,,,,,,,,,,,,,,4,4,",
",*$,*,,,>+>+,,,,,$,-%,,,,,,,,,,,",
",%>*>,,,,,,<,,,,,,-,->,,,,,,,,,,",
",,,,,,,,,,,,,q,,,,,,,,,,,,,,,,,,",
",,,,,,,,,,,,0,0,,,,,,,,,,,,,,,,,",
",,,,,,,,,,,,,,,,,,,,,,,,,,,,,,,,",
",,,,,,,,,,,,,,,,,,,,,,,,,,,,,,,,",
",,,,4,,>,X,,,,,,,,,,,4,,,,,,,,,,",
",,,4,4,,o,o,,,,,,,,,,,4>,,O,>,,,",
",,,,,,,,,,,,,,,,,,,,,,,,,+,+>,,,",
",,,,,,,,,,,,,,,,,,,,,,,,,,,,,,,,",
",,,,,,,,,,,,,,,,,,,,,,,,,,,,,6,,",
",,,,,,,,,,,,,,,,,,,,,,,,,,,,6,6<",
",,,,,,,,,,,,,>,,,,,,,,,,,,,,,,,,",
",,,,,,,,,,,,>>>:,,,,,,,,,,>,,,,,",
",,,>,,,,,,,,:,,,,,,,>,,,,,,>,,,,",
",,+:,,,,,,::>,,,,,o,,<<,,,,,,,,,",
"-$:+,,,,,,>,,,,,,X,o>>,,,,,*,,,,",
":,,,>>,,,=:--:>,,,,,,,>,,-%,@,,,",
">,,,:9,,,,::,,,,,,,,>0>,>>>,,,,,",
",,,3649,,,>>,,,,,,,,9462,,,,,,,,",
",,>:,,,,,,,,,,,,,,,,>,,,,,,,,,,,",
",,,,,,,,,,,,,,,,,,,,,,,,,,,,,,,,",
",,,,,,,,,,,,,,,,,,,,,,,,,,,,,4,,",
",,,>,,,,::+,,,,,,,,,,,,,,,,,225,",
",,=>,,,,:@%+,,,,,,>:,,,,,,,,,,,,",
":$=-=>>,,,,,,,,,,$:-$>,,,,,,,,,,",
":::,::,,,,,,,6,,,,,:,,,,,,,,,,,,",
">>,,,,,,,,,,666,,,,,,,,,,,,,,,,,",
",,,,,,,,,,,,::,,,,,,,,,,,,,,,,,,"
};
