/* XPM */
static char *eeveeright1684332383[] = {
/* columns rows colors chars-per-pixel */
"32 32 161 2 ",
"   c #020100",
".  c #0C0600",
"X  c #060906",
"o  c #070C0A",
"O  c #0B0D0E",
"+  c #110600",
"@  c #130901",
"#  c #1C0D02",
"$  c #09110E",
"%  c #14140B",
"&  c #19180E",
"*  c #0E1A14",
"=  c #141C14",
"-  c #111F19",
";  c #221102",
":  c #2D1402",
">  c #2B1C04",
",  c #321600",
"<  c #331904",
"1  c #3A1C04",
"2  c #13231C",
"3  c #19221E",
"4  c #3F2107",
"5  c #292310",
"6  c #3C2F15",
"7  c #383016",
"8  c #172921",
"9  c #1C3228",
"0  c #222E21",
"q  c #2D3827",
"w  c #213D31",
"e  c #470F00",
"r  c #4B1C00",
"t  c #501F00",
"y  c #5C1900",
"u  c #442205",
"i  c #4C2303",
"p  c #482709",
"a  c #532300",
"s  c #5B2701",
"d  c #5D2A03",
"f  c #542A08",
"g  c #4E350A",
"h  c #553411",
"j  c #642C01",
"k  c #682C01",
"l  c #6A3304",
"z  c #6B3A0F",
"x  c #733302",
"c  c #793C05",
"v  c #7C3C09",
"b  c #35422E",
"n  c #244335",
"m  c #3B4B31",
"M  c #3C5039",
"N  c #7E410A",
"B  c #2D5140",
"V  c #225945",
"C  c #315A47",
"Z  c #335D4A",
"A  c #36624E",
"S  c #2D6E55",
"D  c #376550",
"F  c #386652",
"G  c #3B6C56",
"H  c #30745A",
"J  c #41745C",
"K  c #447C63",
"L  c #843C05",
"P  c #82410B",
"I  c #8A440C",
"U  c #8C4D0D",
"Y  c #94470A",
"T  c #964C0C",
"R  c #985B08",
"E  c #844C15",
"W  c #8E4C11",
"Q  c #944E10",
"!  c #8C5610",
"~  c #9D5211",
"^  c #A5520E",
"/  c #AC540F",
"(  c #BD580D",
")  c #A35612",
"_  c #AB5510",
"`  c #AA5913",
"'  c #B45910",
"]  c #BD5D12",
"[  c #926113",
"{  c #A36409",
"}  c #A26611",
"|  c #A96E14",
" . c #BF6314",
".. c #AE7314",
"X. c #AF7719",
"o. c #B17717",
"O. c #B47916",
"+. c #867334",
"@. c #C45D0E",
"#. c #D35C0A",
"$. c #C5630D",
"%. c #CB6110",
"&. c #C46C1B",
"*. c #D66510",
"=. c #D86610",
"-. c #D96810",
";. c #C17D12",
":. c #E76D11",
">. c #EB6E11",
",. c #EF6E1B",
"<. c #ED7412",
"1. c #F27312",
"2. c #D87F28",
"3. c #358B6B",
"4. c #3D8D6E",
"5. c #3F9171",
"6. c #468167",
"7. c #4A876B",
"8. c #4E8E72",
"9. c #449373",
"0. c #4C9475",
"q. c #4C9979",
"w. c #519376",
"e. c #56997B",
"r. c #559C7D",
"t. c #8F803A",
"y. c #B68528",
"u. c #BB8D2D",
"i. c #BD9234",
"p. c #B8943B",
"a. c #F88415",
"s. c #C99D37",
"d. c #D0973A",
"f. c #9F9048",
"g. c #E79559",
"h. c #C5A447",
"j. c #C9B04F",
"k. c #D0AF52",
"l. c #CDB252",
"z. c #CEBE5D",
"x. c #D4B553",
"c. c #D4BD5C",
"v. c #D9C25C",
"b. c #E2C35A",
"n. c #DBC868",
"m. c #E5C864",
"M. c #F6D864",
"N. c #E7CC73",
"B. c #EADE7C",
"V. c #58A080",
"C. c #60A488",
"Z. c #6BA78B",
"A. c #6DA88C",
"S. c #74AB90",
"D. c #D5D58E",
"F. c #E8DF84",
"G. c #F4E782",
"H. c #FCF795",
"J. c #FCFA9B",
"K. c #F2F2AC",
"L. c #FAFBFC",
/* pixels */
"V.V.V.V.V.V.V.V.V.V.V.V.V.V.V.V.V.V.V.V.V.V.V.V.V.V.V.V.V.V.V.V.",
"V.V.V.V.V.V.V.V.V.V.V.V.V.V.V.V.V.V.V.V.V.V.V.V.V.V.V.V.V.V.V.V.",
"V.V.V.V.V.V.V.V.e.V.3.e.V.V.V.V.V.V.V.V.V.V.V.V.V.V.r.V.V.V.C.V.",
"V.q.q.r.q.V.V.V.V.9.V.9.V.V.V.V.V.9.V.r.q.V.V.V.V.V.V.V.V.V.V.V.",
"V.q.V.q.V.V.V.V.V.V.V.V.V.- X - V.V.r.V.r.V.V.V.V.V.V.V.V.V.V.V.",
"V.V.V.V.V.V.V.V.V.V.V.V.V.8 i I 8 V.V.V.V.V.V.V.V.V.V.V.V.V.V.V.",
"V.V.V.V.V.V.V.V.V.V.V.V.S.- f / c B e.V.V.V.V.V.V.V.V.V.V.V.V.V.",
"V.V.V.V.V.V.V.r.V.V.V.V.V.w 6 P *.1 J e.V.V.V.V.V.V.V.V.V.V.V.V.",
"V.V.V.V.V.V.V.V.V.r.8.8.8.8.A + W a.; K w.V.V.V.V.V.V.V.V.V.V.V.",
"V.V.V.V.V.V.V.V.V.H   . . .   @ d W  .# Z e.e.e.V.V.V.V.V.V.V.r.",
"V.V.V.V.V.V.V.V.4.7.. a.>.1.P     L .           w.V.5.V.r.V.V.V.",
"V.V.V.V.V.V.V.V.V.V.7.; ` : , l *.. s v ) @.@.Q = H V.9.V.V.V.V.",
"V.V.V.V.V.V.V.G n B r.Z p f d d j T : ^ %.%./ @.z q K V.V.V.V.V.",
"V.V.V.V.V.V.G m 5 * V.r.9 h l l < $.1 ( =.' z g.] # Z V.V.A.V.V.",
"V.V.V.V.V.V.$ t.+.* r.V.r.2 u Q ~ i Q %.*.Y O L.,.: Z V.A.V.A.V.",
"V.V.V.V.e.  { N.m.R X r.V.3       x a P ' T     -.) 4 D V.V.V.V.",
"V.V.V.J @ ' z.j.n.D.X V.  t j e   x ) Q ( Y   ~ -.:.d D V.V.V.V.",
"V.V.V.K . ~ #.d.N.F.y X k } k.G.;.  ~ Q T ^ :.-.*.:.d A V.V.V.V.",
"V.V.9.K . ~ ^ &.2.2.L X } p.x.x...f.| c P ~ / =.:.d M 0.V.V.V.V.",
"r.9.r.S   I W _ @.%.v p R h.h.i.y.B.u.! P N v ^ I b K q.V.V.V.V.",
"V.V.V.6.= s I I ~ ( s ) r p.i.X.k.J.c.y.! l l s   K q.r.9.V.V.V.",
"V.V.V.V.w.  s j j j ~ ~   [ X.y.l.J.H.c.i.o.|     K V.V.V.V.V.V.",
"V.V.V.V.A.e..     # ` :.Q @ : c O.l.J.J.k.y.n.K.& 6.V.V.V.V.V.V.",
"V.V.V.V.V.V.8.8.F . d :.1.;   . k ;.v.b.s.o...M.% K V.V.V.V.V.V.",
"V.V.V.V.V.V.V.V.F @ Q <.< i a i @ > E 7 g U X.7 J w.V.V.V.V.V.V.",
"V.V.V.V.V.V.V.V.F @ P $.v 1 : 5 C   j x i 4 g   w.r.V.V.V.V.V.V.",
"V.V.V.V.V.V.V.V.J 0 a z ^ 7 9 w r.w i T p o 9 9 w.V.V.V.V.V.Z.V.",
"V.V.q.V.V.V.V.V.r.4.F V D r.V.V.r.r.G D D K V.V.V.V.V.V.V.V.V.V.",
"V.9.r.q.q.V.V.V.V.V.V.V.V.V.V.V.V.q.r.r.9.V.V.V.V.V.V.V.V.V.V.V.",
"V.V.V.V.r.V.V.V.V.V.V.V.V.A.V.V.V.V.V.V.V.V.V.V.V.V.V.V.V.V.V.V.",
"V.V.V.V.V.V.V.V.V.V.V.V.A.Z.A.V.V.V.V.V.V.V.V.V.V.V.V.V.V.V.V.V.",
"V.V.V.V.V.V.V.V.V.V.V.V.V.r.V.V.V.V.r.V.V.V.V.V.V.V.V.V.V.V.V.V."
};
