/* XPM */
static char *eeveeleft1684332417[] = {
/* columns rows colors chars-per-pixel */
"32 32 168 2 ",
"   c #020100",
".  c #0C0600",
"X  c #0F0801",
"o  c #050908",
"O  c #110700",
"+  c #140A02",
"@  c #190C01",
"#  c #0A120F",
"$  c #1D1204",
"%  c #1A160A",
"&  c #0E1813",
"*  c #1B1C10",
"=  c #151C19",
"-  c #230E00",
";  c #251202",
":  c #2A1301",
">  c #2D1A05",
",  c #341902",
"<  c #3C1B02",
"1  c #14261E",
"2  c #36260A",
"3  c #2F2513",
"4  c #332911",
"5  c #1B3127",
"6  c #1E372C",
"7  c #22332A",
"8  c #233A2D",
"9  c #213C30",
"0  c #4B1601",
"q  c #431B00",
"w  c #432105",
"e  c #4D2200",
"r  c #452E08",
"t  c #532300",
"y  c #5C2500",
"u  c #5B2A05",
"i  c #5C2F09",
"p  c #5F330C",
"a  c #612300",
"s  c #632B01",
"d  c #6C3203",
"f  c #623209",
"g  c #6E360A",
"h  c #743401",
"j  c #763705",
"k  c #773906",
"l  c #743B0B",
"z  c #244133",
"x  c #294132",
"c  c #324F3C",
"v  c #30513E",
"b  c #79410E",
"n  c #744614",
"m  c #47462A",
"M  c #56522A",
"N  c #69643A",
"B  c #275241",
"V  c #315543",
"C  c #355844",
"Z  c #335D4B",
"A  c #34604D",
"S  c #386652",
"D  c #396853",
"F  c #3D6F59",
"G  c #3F725B",
"H  c #41775F",
"J  c #467F66",
"K  c #843E09",
"L  c #814306",
"P  c #85430D",
"I  c #8B450B",
"U  c #924B0E",
"Y  c #9D4D0D",
"T  c #88560E",
"R  c #955B0E",
"E  c #864713",
"W  c #864810",
"Q  c #8F4C11",
"!  c #934D10",
"~  c #9A4F10",
"^  c #9B5212",
"/  c #A05A07",
"(  c #AB540D",
")  c #B2550D",
"_  c #A45714",
"`  c #AC5912",
"'  c #B45810",
"]  c #98610D",
"[  c #A3640A",
"{  c #AC6C09",
"}  c #A46715",
"|  c #AB6F11",
" . c #BD6215",
".. c #AA771E",
"X. c #B77812",
"o. c #90612A",
"O. c #A77C27",
"+. c #C55E0F",
"@. c #C95F0F",
"#. c #D45705",
"$. c #C15E10",
"%. c #D1630F",
"&. c #C96111",
"*. c #C86711",
"=. c #D66510",
"-. c #DB6610",
";. c #DD6A11",
":. c #DB7219",
">. c #ED650A",
",. c #EE6F10",
"<. c #EF7012",
"1. c #EB7C14",
"2. c #F47312",
"3. c #F87512",
"4. c #358B6B",
"5. c #3F9171",
"6. c #478067",
"7. c #478268",
"8. c #488268",
"9. c #4B8A6E",
"0. c #4E8E72",
"q. c #439373",
"w. c #499777",
"e. c #4D9979",
"r. c #519476",
"t. c #539678",
"y. c #559E7E",
"u. c #BA8A2B",
"i. c #B88F34",
"p. c #B5953E",
"a. c #C8881C",
"s. c #EB8114",
"d. c #F38E16",
"f. c #C68C22",
"g. c #C49834",
"h. c #C49D3D",
"j. c #C9A13F",
"k. c #B99E47",
"l. c #ABA058",
"z. c #CFA742",
"x. c #CAAA4A",
"c. c #D3A646",
"v. c #CDB252",
"b. c #C9BC5A",
"n. c #D7BA59",
"m. c #D3BC5B",
"M. c #EDAC7D",
"N. c #DFCD73",
"B. c #E1D16A",
"V. c #E7D676",
"C. c #E7D877",
"Z. c #E8D877",
"A. c #EADC79",
"S. c #E7E167",
"D. c #EDE07E",
"F. c #58A080",
"G. c #60A488",
"H. c #6AA78B",
"J. c #6DA88C",
"K. c #76A58E",
"L. c #73AB90",
"P. c #EEE281",
"I. c #F1E685",
"U. c #F6EE8B",
"Y. c #F5EF99",
"T. c #FEFD99",
"R. c #FEFDB1",
"E. c #D2D4D5",
/* pixels */
"F.F.F.F.F.F.F.y.F.F.F.F.F.F.F.F.F.F.F.F.y.F.F.F.F.F.F.F.F.F.F.F.",
"F.F.F.F.F.F.F.F.F.F.F.F.F.F.F.F.F.F.F.F.F.F.F.F.F.F.F.F.F.G.F.F.",
"F.F.F.F.F.F.F.F.y.F.4.y.F.F.F.F.y.y.F.F.F.F.F.F.F.F.F.F.F.F.G.F.",
"F.e.w.F.e.F.F.F.F.q.F.q.y.F.F.F.D S y.y.t.F.F.F.F.F.F.F.F.F.F.F.",
"F.e.F.e.F.F.F.F.F.F.F.y.F.y.t.J >   9.y.y.F.F.F.F.F.F.F.F.F.F.F.",
"F.F.F.F.F.F.F.F.F.F.F.F.F.K.8.+ d.. w.F.F.F.F.F.F.F.F.F.F.F.F.F.",
"y.F.F.F.F.F.F.F.F.F.F.F.L.x - 3._   0.F.F.F.F.F.F.F.F.F.F.F.F.F.",
"F.F.F.F.F.y.F.F.F.F.F.F.= l +._ . 0.y.F.y.F.F.F.F.F.F.F.F.F.F.F.",
"F.F.F.F.F.F.F.F.F.F.y.8 p Q ^ j   6 6 6 8 9 F.F.F.F.F.F.F.F.F.F.",
"F.F.F.F.G.F.F.8.A B Z   t g l <   p i u < & F.F.F.F.F.F.F.F.F.F.",
"F.F.F.F.y.F.r.V O + + X X , e + . =.=.@.W 1 F.F.F.y.5.y.y.F.F.F.",
"F.F.F.F.y.r.7 < ` 2.,.^ j ; @ 1.d X ! > 8 y.t.t.y.q.F.q.F.y.F.F.",
"F.F.F.F.F.  l +.#.Q -.,.  I &.  y :.@ G y.0.    7.F.F.F.F.F.F.F.",
"F.F.F.F.y.o Y M.E.+ 3.-.` k d `  .  0.F.y.r.  S.1 G F.F.F.J.F.F.",
"F.F.F.F.& b @.E = + 3.~ d s t + O   0.F.F * ] Y...4 V F.J.F.J.F.",
"F.F.F.F.  ) =.Y w @ 3.! K d t   < < x J F % n.N.j.n r Z F.F.F.F.",
"F.F.F.F.  %.=.$.U w ;.! ! d w > o.b - c V 3 T.x.c.} i 1 F.F.F.F.",
"F.F.F.F.  =.=.=.-.;.W ! ! < $ X.R.{ d ; - b T.b.;.` p 1 F.F.F.F.",
"F.F.q.y.y.  ( 2.-.Q _ 0 [ g.z.[ m.m.f.2 > ` #.>.! ^ f 1 F.F.F.F.",
"y.q.y.q.y.t.8 : s t 0 X.x.C.I.n./ B.g I I s <.Q ^ k q = F.F.F.F.",
"F.F.F.F.F.F.5   ; X.} x.D.U.I.v.| f.$ f ! I d d h ; z 9.q.F.F.F.",
"F.F.F.F.F.L.5 m l.h.[ P.U.V.n.u.L r s Y ' W - - - v 6.F.F.F.F.F.",
"F.F.F.F.J.F.8 N Z.p.[ P.A.n.i.R q   _ @.+.l   6 9 7.F.F.F.F.F.F.",
"F.F.F.F.F.y.x M p.| } k.k.O.T t + + ( @.) t   t.F.F.F.F.F.F.F.F.",
"F.F.F.F.F.F.F.A % a.a   t -     j h . P &.W   r.F.F.F.F.F.F.F.F.",
"F.F.F.F.F.F.F.V   . . s.K : # t.. . *. .U y   r.F.F.F.F.F.F.F.F.",
"F.F.F.F.F.F.F.t.7.H   > + C 9.F.J 6.3 ; $ * 6.F.F.F.F.F.F.F.G.F.",
"F.F.t.F.y.F.F.F.y.q.e.q.y.y.y.F.F.F.F.y.F.F.F.F.F.F.F.F.F.F.F.F.",
"F.q.y.e.e.F.F.F.F.F.F.F.y.F.F.F.F.w.y.y.w.F.F.F.F.F.F.F.F.F.F.F.",
"F.F.F.F.F.F.F.F.F.F.y.F.F.J.F.F.F.F.F.F.F.F.F.F.F.F.F.F.F.F.F.F.",
"F.F.F.F.F.y.F.F.F.F.F.F.J.H.J.F.F.F.F.F.F.F.F.F.F.F.F.F.F.F.F.F.",
"F.F.F.F.F.F.F.F.F.F.F.F.F.F.F.F.F.F.F.y.F.F.F.F.F.F.F.F.F.F.F.F."
};
