/* XPM */
static char *collectables1684332444[] = {
/* columns rows colors chars-per-pixel */
"32 32 115 2 ",
"   c black",
".  c gray1",
"X  c #0D0607",
"o  c #080708",
"O  c #0C070C",
"+  c #070A0B",
"@  c #1A0B09",
"#  c #0A1213",
"$  c #0E131C",
"%  c #2B120D",
"&  c #2C373F",
"*  c #430B08",
"=  c #59130B",
"-  c #7B2723",
";  c #723224",
":  c #773727",
">  c #793328",
",  c #353C44",
"<  c #3A3F4D",
"1  c #3B4047",
"2  c #38434A",
"3  c #474F56",
"4  c #484C54",
"5  c #56634F",
"6  c #586254",
"7  c #586754",
"8  c #5F6555",
"9  c #6C6E5C",
"0  c #746F5D",
"q  c #585763",
"w  c #5F5F76",
"e  c #607E69",
"r  c #7F7866",
"t  c #7F7C6B",
"y  c #7D7F6D",
"u  c #801A0F",
"i  c #822517",
"p  c #892011",
"a  c #8D2917",
"s  c #913A1F",
"d  c #9A2C23",
"f  c #8D3023",
"g  c #883224",
"h  c #893826",
"j  c #913621",
"k  c #923425",
"l  c #943820",
"z  c #993C26",
"x  c #97352A",
"c  c #854429",
"v  c #C65A45",
"b  c #CC5F47",
"n  c #C05C4A",
"m  c #D56B48",
"M  c #CA6250",
"N  c #CB6A56",
"B  c #D56A54",
"V  c #E16148",
"C  c #E5674A",
"Z  c #EC744A",
"A  c #E46E55",
"S  c #F7765C",
"D  c #38866A",
"F  c #358B6B",
"G  c #378C6C",
"H  c #398D6D",
"J  c #3F9171",
"K  c #53866F",
"L  c #429272",
"P  c #439373",
"I  c #459474",
"U  c #499777",
"Y  c #4A9878",
"T  c #4F9A7A",
"R  c #539073",
"E  c #509175",
"W  c #56937A",
"Q  c #58947C",
"!  c #519B7B",
"~  c #579A7E",
"^  c #529C7C",
"/  c #539D7D",
"(  c #579F7F",
")  c #5A9B7F",
"_  c #599D7F",
"`  c #7E8374",
"'  c #6C6B85",
"]  c #589F80",
"[  c #5A9F80",
"{  c #58A080",
"}  c #5CA284",
"|  c #5DA285",
" . c #5FA387",
".. c #60A384",
"X. c #60A488",
"o. c #6AA78B",
"O. c #6EA98D",
"+. c #71AA8F",
"@. c #72AA8F",
"#. c #74AB90",
"$. c #76AC92",
"%. c #7DAF96",
"&. c #F9B1A9",
"*. c #C5C5D9",
"=. c #D0CFDA",
"-. c #D6D4DE",
";. c #FAE2DB",
":. c #CCDAE6",
">. c #D8D0E3",
",. c #ECEAEB",
"<. c #E6E5FB",
"1. c #F0EEF0",
"2. c gray95",
"3. c #F5F5F6",
"4. c #F9F9F9",
/* pixels */
"{ { { { { { { { { { { { { { { { { { { { { { { { { { { { { { { { ",
"{ { { { { { { { { { { { { { { { { { { { { { { { { { { | {  .{ { ",
"{ { { { { { { { ( { F ( { { { { { { { { { { { { { { { { | { } { ",
"{ T U { T { { { { L ( L { { { { { U { ^ Y { { { { { { { { { { { ",
"{ Y ( T ( { { { { { { { { { { { { { ^ { ^ { { { { { { { { { { { ",
"{ { { { { { { { { { { { { %.{ { { { { { { { { { { { { { { { { { ",
"{ { { { { { { { { { { { #.{ $.{ { { { { { { { { { { { { { { { { ",
"{ { { { { { { { { { { { { { { { { { { { { { { { { { { { { { { { ",
"{ { { { { { { { { { { { ] ] ] { { { ( ( { { { { { { { { { { { { ",
"{ { { { | { { ( { G ] { ] ] { { { { ( | { | { ( { { { { { { { { ",
"{ { { | { | { { H { H { ] ] 5 9 7 5 _ { { { | _ { { J { ^ { { { ",
"{ { { { { { { { { { { { ~ 9 d z l j 0 _ { { { ] { L { L { { { { ",
"{ { { { { { { { { { { _ y i &.A v b a r ] [ ] ] { { { { { { { { ",
"{ { { { { { { { { { ] ` u B ;.C k f m p t ] ] ] { { { { { O.{ { ",
"{ { { { { { { { { { R * S g V n - k h Z = e { { { { { { O.{ O.{ ",
"{ { { { { { { { { { E @ N s ; # $ > x M % K { { { { { { { { { { ",
"{ { { { { { { { { ] ( < + c   ,.<.o : X , Q { { { { { { { { { { ",
"{ { { { { { { { { ] Q w 2.    :.>.O   *.' Q { { { { { { { { { { ",
"{ { L ( { { { { { { ] ) 2 4.4.    2.4.q W { { { { { { { { { { { ",
"{ L ( J { { { { { { ^ ] ( & =.3.3.-.2 D { { { { { { { Y { { { { ",
"{ { { { { { { { { Y ] ^ ! ) 1 3 4 2 { { { { { { { ^ U ( I { { { ",
"{ { { { { O.{ { { { { { { { { { { { { { { #.{ { { { { { { { { { ",
"{ { { { o.| $.{ { { { { { { { { { { { { @...@.{ { { { { { { { { ",
"{ { { { { { ( { { { { { { { { { { { { { { { _ ( { { { { { { { { ",
"{ { { { { { { { { { { { { { { { { { { { { { { { { { { { { { { { ",
"{ { { { { { { { { { { { { { { { { { { { { { { { { { { { { | { { ",
"{ { { { { { { { { { L { { { { { { { { { { { { { { { { { | { X.{ ",
"{ { T { { { { { { L Y J { { { { { { { { { { { { { { { { { { { { ",
"{ I ^ T Y { { { { { { { { { { { { I { ( I { { { { { { { { { { { ",
"{ { { { { { { { { { { { { O.{ { { { { { { { { { { { { { { { { { ",
"{ { { { { { { { { { { { o.o.o.{ { { { { { { { { { { { { { { { { ",
"{ { { { { { { { { { { { { { { { { { { { { { { { { { { { { { { { "
};
