/* XPM */
static char *eeveefront1684332416[] = {
/* columns rows colors chars-per-pixel */
"32 32 162 2 ",
"   c #030201",
".  c #0B0601",
"X  c #0D0903",
"o  c #060C0A",
"O  c #170701",
"+  c #1A0400",
"@  c #120A02",
"#  c #1C0E01",
"$  c #09110D",
"%  c #1B1407",
"&  c #13130C",
"*  c #1C190C",
"=  c #0C1612",
"-  c #0E1B15",
";  c #111F19",
":  c #241304",
">  c #2A1501",
",  c #281C0A",
"<  c #381C02",
"1  c #381E08",
"2  c #172319",
"3  c #2C250E",
"4  c #3A2009",
"5  c #242516",
"6  c #2A2613",
"7  c #192D24",
"8  c #1C342A",
"9  c #1F392E",
"0  c #233729",
"q  c #492400",
"w  c #452509",
"e  c #4C2B0C",
"r  c #502400",
"t  c #572A06",
"y  c #5E300A",
"u  c #40391E",
"i  c #5E3D15",
"p  c #613000",
"a  c #6E3602",
"s  c #68370C",
"d  c #6D3C0F",
"f  c #743A01",
"g  c #7A3C01",
"h  c #753D09",
"j  c #673910",
"k  c #234134",
"l  c #2A4434",
"z  c #274739",
"x  c #294A3B",
"c  c #3A4E38",
"v  c #3A523D",
"b  c #7E450C",
"n  c #644517",
"m  c #794615",
"M  c #735314",
"N  c #4C4022",
"B  c #746836",
"V  c #385844",
"C  c #3A634D",
"Z  c #386652",
"A  c #3A6B55",
"S  c #3D735C",
"D  c #41755D",
"F  c #4E7261",
"G  c #447B62",
"H  c #864406",
"J  c #884B0C",
"K  c #89540E",
"L  c #844A13",
"P  c #8B4B12",
"I  c #895612",
"U  c #955113",
"Y  c #9C5414",
"T  c #935F10",
"R  c #A55916",
"E  c #AB5C15",
"W  c #A35A19",
"Q  c #AB5E19",
"!  c #B35E15",
"~  c #B85E12",
"^  c #9B6715",
"/  c #AE720A",
"(  c #B86517",
")  c #B4631B",
"_  c #BD6519",
"`  c #AE7B1B",
"'  c #B77F18",
"]  c #A0732A",
"[  c #D6690C",
"{  c #C56414",
"}  c #CC6A17",
"|  c #C26718",
" . c #C1691D",
".. c #D76F16",
"X. c #DC6D12",
"o. c #D56E18",
"O. c #CA741D",
"+. c #D77018",
"@. c #D97119",
"#. c #E2761A",
"$. c #EB7A1B",
"%. c #F67F1C",
"&. c #D17F3C",
"*. c #8D7F42",
"=. c #358B6B",
"-. c #3C8A6B",
";. c #478167",
":. c #49856A",
">. c #4B896D",
",. c #4E8E71",
"<. c #439373",
"1. c #4A9475",
"2. c #4C9979",
"3. c #519476",
"4. c #539678",
"5. c #559D7D",
"6. c #61907A",
"7. c #B48322",
"8. c #BD8922",
"9. c #BA8F2F",
"0. c #BB9131",
"q. c #F5831C",
"w. c #FD831D",
"e. c #FE8D1F",
"r. c #CB9625",
"t. c #D39722",
"y. c #D79A23",
"u. c #D7833E",
"i. c #C59B36",
"p. c #F09620",
"a. c #F89320",
"s. c #D48545",
"d. c #DF8C48",
"f. c #DDA144",
"g. c #D2AE4A",
"h. c #CDAF51",
"j. c #D7B756",
"k. c #D6B758",
"l. c #E3B84C",
"z. c #D1BA62",
"x. c #D7C36B",
"c. c #DECE77",
"v. c #E6C560",
"b. c #E5CA6D",
"n. c #F1C66F",
"m. c #ECD675",
"M. c #58A080",
"N. c #60A488",
"B. c #6AA78B",
"V. c #6DA88C",
"C. c #71AA8F",
"Z. c #D2B9A9",
"A. c #FFFA8A",
"S. c #F2E59B",
"D. c #EBCEB6",
"F. c #F7F2A0",
"G. c #FEF9A1",
"H. c #F5F3AD",
"J. c #FFFFB4",
"K. c #FFFEBC",
"L. c #FFE5CE",
"P. c #FCF1E2",
/* pixels */
"M.M.M.M.M.M.M.M.M.M.M.M.M.M.M.M.M.M.M.M.M.M.M.M.M.M.M.M.M.M.M.M.",
"M.M.M.M.M.M.M.M.M.M.M.M.M.M.M.M.M.M.M.M.M.M.M.M.M.M.M.M.M.N.M.M.",
"M.M.M.M.M.M.M.M.5.M.=.5.M.M.M.S 5.M.M.M.M.M.M.M.M.M.M.M.M.M.N.M.",
"M.2.2.5.2.M.M.M.M.<.M.<.M.5.>.6 :.<.M.5.2.M.M.M.M.M.M.M.M.M.M.M.",
"M.2.5.5.M.M.M.M.M.M.M.M.M.4.  A.X :.5.5.5.5.M.M.M.5.M.M.M.M.M.M.",
"M.5.M.M.2 o x M.M.M.M.M.A & / K.` 3 x 5.N.5.M.M.Z o $ M.M.M.M.M.",
"M.M.M.M.= d n 9 k M.M.M.F X g.J.h.6 z 5.5.5.l 0 N L o M.M.M.M.M.",
"M.M.M.5.= P L < i Z M.D c e f.n.f.n 0 F 5.D n < s E   M.M.M.M.M.",
"M.M.M.M.7 m b h O.: >.0 w Y } { { R j * >., _ H h L - M.M.M.M.M.",
"M.M.M.M.M.0   X X a.. p q . . @ . . : f . p.:   o 2 M.M.M.M.M.M.",
"M.M.M.M.M.8 e Q @ w.( : 4 ( w.%.%.| j . ) q.: L b ; <.M.5.M.M.M.",
"M.M.M.M.M.5.C > ) a @.R E o.+.o.@.@.( Y #.a W 1 l -.M.<.M.M.5.M.",
"M.M.M.M.M.M.>.V e > ! _ } @.+.@.@...} |  .> w v G M.M.M.M.M.M.M.",
"M.M.M.M.M.M.M.,.7   Q s.u.} @.@...d.&.~ Q X 7 ;.M.M.M.M.M.V.M.M.",
"M.M.M.M.M.M.M.M.3.  X.L.D.Q @.o.[ P.Z.g )   >.M.M.M.M.M.V.M.V.M.",
"M.M.M.M.M.M.M.M.3.  W +   . %.w.@.O     _ . >.M.M.M.M.M.M.M.M.M.",
"M.M.M.5.5.5.5.5.3.  f # > g e.  $.> > g g   >.5.M.M.M.M.M.M.M.M.",
"M.M.M.5.5.5.N.>.2 8.X d R } @.{ @.| ! P @ 8.5 G M.M.M.M.5.M.M.M.",
"M.M.1.5.N.5.5.>.@ b.n b Y { @.@.@.| R L B l.% D M.M.M.M.M.M.M.M.",
"5.2.5.1.5.5.5.:.& S.7.K J U ! ! ! Y J I x.v.* D M.M.M.2.M.M.M.M.",
"5.M.M.M.5.M.M.>.@ y.` 7.T t       r K 9.x.t.: S M.5.2.5.2.M.M.M.",
"5.M.M.M.5.V.M.5.1.. m.i.j.H.H.k.' 7.^ f r.X >.5.M.M.M.M.5.5.M.M.",
"M.M.M.M.C.N.C.M.5.>.5 t ] b.G.F.z.9.^ g H   6.M.M.M.M.5.M.M.M.M.",
"M.M.M.M.5.M.M.M.M.5.  O , u m.c.0.I p # : S 5.5.M.M.M.M.M.M.M.M.",
"M.M.M.M.M.M.M.M.M.5.x = # e *.j.M b t o x 5.M.M.5.M.M.M.M.M.M.M.",
"M.M.M.M.M.M.M.M.M.M.M.8 w Q O r.: L j - M.M.M.M.M.M.M.M.M.M.M.M.",
"M.M.M.M.M.M.5.M.5.M.<.7 y $.O.  %.( d $ M.M.M.M.M.M.M.M.M.M.B.M.",
"M.M.5.5.M.M.M.M.5.<.2.-.Z O @ 3.% X l 1.M.M.M.M.M.M.M.M.M.M.M.M.",
"5.2.5.5.5.M.M.M.M.M.M.M.1.G G M.G S >.5.<.M.M.M.M.M.M.M.M.M.M.M.",
"M.5.5.M.5.5.M.M.M.M.M.M.M.B.M.M.M.M.M.M.M.M.M.M.M.M.M.M.M.M.M.M.",
"M.5.5.M.M.M.M.M.M.M.M.M.B.B.B.M.M.M.M.M.M.M.M.M.M.M.M.M.M.M.M.M.",
"M.M.M.M.M.M.M.M.M.M.M.M.M.M.M.M.M.M.M.M.M.M.M.M.M.M.M.M.M.M.M.M."
};
