/* XPM */
static char *eeveeback1684332417[] = {
/* columns rows colors chars-per-pixel */
"32 32 158 2 ",
"   c #020100",
".  c #0B0501",
"X  c #0D0B06",
"o  c #160B01",
"O  c #1F0E01",
"+  c #0C110D",
"@  c #1E1404",
"#  c #12120A",
"$  c #0C1410",
"%  c #0F1C16",
"&  c #131D15",
"*  c #111F19",
"=  c #231203",
"-  c #2C1402",
";  c #2D1B09",
":  c #331501",
">  c #361903",
",  c #3C1D04",
"<  c #182016",
"1  c #13221B",
"2  c #2E220E",
"3  c #33200A",
"4  c #172B22",
"5  c #182B22",
"6  c #1C3429",
"7  c #411F03",
"8  c #452305",
"9  c #492608",
"0  c #4F2909",
"q  c #572701",
"w  c #5D2901",
"e  c #522D0A",
"r  c #592F09",
"t  c #5D300A",
"y  c #422D13",
"u  c #543A13",
"i  c #652B00",
"p  c #692E01",
"a  c #6A3002",
"s  c #6E3B0D",
"d  c #733302",
"f  c #7C3C07",
"g  c #773C0A",
"h  c #2E402E",
"j  c #244134",
"k  c #284334",
"l  c #2C4738",
"z  c #2A4C3C",
"x  c #364D39",
"c  c #5D4E23",
"v  c #7A6C30",
"b  c #2E5543",
"n  c #315644",
"m  c #345E4B",
"M  c #35614E",
"N  c #3B6752",
"B  c #3F735C",
"V  c #457E65",
"C  c #832F01",
"Z  c #823108",
"A  c #86450E",
"S  c #8B480F",
"D  c #9B4605",
"F  c #964408",
"G  c #934B0F",
"H  c #9E500E",
"J  c #935E0F",
"K  c #804611",
"L  c #894810",
"P  c #934E11",
"I  c #9B4F10",
"U  c #9C5211",
"Y  c #AB4E08",
"T  c #A45B0D",
"R  c #A25512",
"E  c #AA5611",
"W  c #AD5912",
"Q  c #A05A19",
"!  c #B05710",
"~  c #B55910",
"^  c #B85C11",
"/  c #9D6F11",
"(  c #9A6C1C",
")  c #AC6705",
"_  c #AF6C0F",
"`  c #B7720A",
"'  c #BB7913",
"]  c #CA5E0D",
"[  c #D75402",
"{  c #D95504",
"}  c #D75805",
"|  c #C05E10",
" . c #D6620E",
".. c #C17D0F",
"X. c #CB6110",
"o. c #D56510",
"O. c #DB6610",
"+. c #D56A13",
"@. c #DB6B13",
"#. c #EC660C",
"$. c #E46B10",
"%. c #E96D10",
"&. c #E87B13",
"*. c #F07411",
"=. c #F77812",
"-. c #358B6B",
";. c #3F9171",
":. c #468067",
">. c #488469",
",. c #4B896D",
"<. c #4E8E71",
"1. c #439373",
"2. c #4C9475",
"3. c #4C9979",
"4. c #519376",
"5. c #529678",
"6. c #549D7D",
"7. c #66907B",
"8. c #BF902E",
"9. c #A0883E",
"0. c #BB8734",
"q. c #CE8312",
"w. c #CF8F1E",
"e. c #C78A2C",
"r. c #8A8A55",
"t. c #B19944",
"y. c #C5A344",
"u. c #C5A549",
"i. c #C4AD4C",
"p. c #CEAB4C",
"a. c #C9AD51",
"s. c #CDB453",
"d. c #D2B555",
"f. c #DCBE57",
"g. c #E0BD52",
"h. c #E5C356",
"j. c #C7C865",
"k. c #C8CD68",
"l. c #E1CF6D",
"z. c #E4D373",
"x. c #E4D877",
"c. c #E9DB7C",
"v. c #58A080",
"b. c #60A488",
"n. c #6AA78B",
"m. c #6DA88C",
"M. c #72AA8F",
"N. c #7DAF96",
"B. c #D4D389",
"V. c #E6DD8A",
"C. c #EFE788",
"Z. c #F0E583",
"A. c #F3E986",
"S. c #F6EE8B",
"D. c #F9F696",
"F. c #F6F6A3",
"G. c #FEFEA6",
"H. c #FEFEB8",
/* pixels */
"v.v.v.v.v.v.v.v.v.v.v.v.v.v.v.v.v.v.v.v.v.v.v.v.v.v.v.v.v.v.v.v.",
"v.v.v.v.v.v.v.v.v.v.v.v.v.v.v.v.v.v.6.v.v.v.v.v.v.v.v.v.v.v.v.v.",
"v.v.v.v.v.v.v.v.6.v.-.v.v.v.v.v.v.v.v.v.v.v.v.v.v.v.v.v.v.v.b.v.",
"v.3.3.6.3.v.v.v.v.1.v.1.v.v.v.v.v.1.v.6.2.v.v.v.v.v.v.v.v.v.v.v.",
"v.3.v.3.4 5 5 j v.v.v.v.v.v.v.v.v.v.v.v.3.v.v.v.6 5 5 j v.v.v.v.",
"v.v.v.v.  , > 2 M v.v.v.v.N.v.v.v.v.v.v.v.v.4.m ; 7 = 1 v.v.v.v.",
"v.v.v.v.% K g w ; ,.>.<.M.>.7.,.>.:.>.v.,.:.V - p A u 6 v.v.v.v.",
"v.v.v.v.v.% 9 E &.. . k <.. . . . . . <.& . = =.W = n v.v.v.v.v.",
"v.v.v.v.v.$ : d $.%.E 0 . p U $.| I p . L | $.$.p o b v.v.v.v.v.",
"v.v.v.v.v.,.l : ! $.X.R f ] X.o.o.] ] s | o.o.! O N <.v.v.v.v.v.",
"v.v.v.v.v.v.B h t Y ~ ~ ~ O.o.o.o.o.O.! ^ ! D r k ,.;.v.5.v.v.v.",
"v.v.v.v.v.v.v.:.+ p L ~ O.o.o.o.o.o.o.O.I g 7 + 4.1.v.1.v.v.v.v.",
"v.v.v.v.v.v.v.v.5.  S ^ O.{ o.o.o.o.} @.R 9 * v.v.v.v.v.v.v.v.v.",
"v.v.v.v.v.v.v.v.4.  7 D @.k.[  .} +.j.#.p - * v.v.v.v.v.v.n.v.v.",
"v.v.v.v.v.v.v.v.5.  q f Q D.y.p.p.d.D.F p : * v.v.v.v.v.m.v.n.v.",
"v.v.v.v.v.v.v.4.b   - 7 e r.z.l.l.l.c.T 7 , y b 5.v.v.v.v.v.v.v.",
"v.v.v.v.v.v.v.:.  X   . . X F.C.S.A.d.' @ e S   2.v.v.v.v.v.v.v.",
"v.v.v.v.v.v.v.:.# H.f.8.) q.    r.G.H.Z _ 8.t.  4.v.v.v.6.v.v.v.",
"v.v.1.v.v.v.v.:.X h.S.D.S.s.` U > + ..C u.c.B.  4.v.v.v.v.v.v.v.",
"6.1.6.;.v.v.v.:.X h.A.S.S.S.u.X.E g o V.A.d.(   4.6.v.3.v.v.v.v.",
"v.v.v.v.v.v.v.<.z v a.z.S.x.e.o.~ A   V.z.9.u z 5.6.3.6.1.v.v.v.",
"v.v.v.v.v.M.v.v.5.  J p.Z.i.{  .! A   g.y.c & v.v.v.v.v.v.v.v.v.",
"v.v.v.v.n.v.M.v.4.  S 0.s./ #.G I P   w.d : + v.v.v.v.v.v.v.v.v.",
"v.v.v.v.v.v.v.v.v.2.o 0 E *.P R 8 . i d o n 5.v.v.v.v.v.v.v.v.v.",
"v.v.v.v.v.v.v.v.v.v.:.x = > = = > q H O N 2.v.v.v.6.v.v.v.v.v.v.",
"v.v.v.v.v.v.v.v.v.v.6.b . e -   > a E . ,.v.v.v.v.v.v.v.v.v.v.v.",
"v.v.v.v.v.v.v.v.6.v.1.m < U w % 3 w P & ,.v.v.v.v.v.v.v.v.v.n.v.",
"v.v.3.v.v.v.v.v.6.1.3.1.3.    v.z     5.v.v.v.v.v.v.v.v.v.v.v.v.",
"v.1.6.3.3.v.v.v.v.v.v.v.6.v.v.v.6.1.v.6.1.v.v.v.v.v.v.v.v.v.v.v.",
"v.v.v.v.v.v.v.v.v.v.v.v.v.m.v.v.v.v.v.v.v.v.v.v.v.v.v.v.v.v.v.v.",
"v.v.v.6.v.v.v.v.v.v.v.v.m.n.m.v.v.v.v.v.v.v.v.v.v.v.v.v.v.v.v.v.",
"v.v.v.v.v.v.v.v.v.v.v.v.v.v.v.v.v.v.v.v.v.v.v.v.v.v.v.v.v.v.v.v."
};
