/* XPM */
static char *f3dfce9b0fdd49a4b4a5577b99032193BMMLyxaeisrjPYIK[] = {
/* columns rows colors chars-per-pixel */
"32 32 120 2 ",
"   c #1D1E1D",
".  c #1C3229",
"X  c #252423",
"o  c #282727",
"O  c #2E2F2F",
"+  c #22352D",
"@  c #30302F",
"#  c #2C3330",
"$  c #2A3C34",
"%  c #323232",
"&  c #313C3C",
"*  c #274539",
"=  c #2D453A",
"-  c #2C493D",
";  c #314139",
":  c #3A3F42",
">  c #354741",
",  c #324C42",
"<  c #39564A",
"1  c #39584C",
"2  c #3B6352",
"3  c #377860",
"4  c #4D504F",
"5  c #475F56",
"6  c #575858",
"7  c #416355",
"8  c #5D6365",
"9  c #467562",
"0  c #4A7564",
"q  c #616669",
"w  c #64696B",
"e  c #6B6F6F",
"r  c #706F6F",
"t  c #646B70",
"y  c #686C71",
"u  c #6D7273",
"i  c #8C4D4F",
"p  c #9C464C",
"a  c #8B5558",
"s  c #A74A4E",
"d  c #A7595E",
"f  c #F65F67",
"g  c #358B6B",
"h  c #4C846C",
"j  c #4F8C71",
"k  c #508F73",
"l  c #439373",
"z  c #499777",
"x  c #4C9979",
"c  c #529276",
"v  c #539679",
"b  c #559D7D",
"n  c #66957F",
"m  c #777E81",
"M  c #798181",
"N  c #7C8589",
"B  c #6D9C86",
"V  c #58A080",
"C  c #60A384",
"Z  c #60A488",
"A  c #6AA78B",
"S  c #6DA88C",
"D  c #74AB90",
"F  c #858C8C",
"G  c #848E92",
"H  c #839097",
"J  c #8A9395",
"K  c #8C939B",
"L  c #949494",
"P  c #919B9B",
"I  c #8EA0A6",
"U  c #97A2A5",
"Y  c #9BA2A2",
"T  c #9BA6AB",
"R  c #9EA8AB",
"E  c #A7A7A6",
"W  c #A1ACAF",
"Q  c #A6B1B5",
"!  c #AEB7B7",
"~  c #AAB6BA",
"^  c #ADB8BC",
"/  c #B2B9B8",
"(  c gray",
")  c #A0B6C0",
"_  c #A9B7C1",
"`  c #A6BCC5",
"'  c #ACBBC5",
"]  c #B1BEC3",
"[  c #B6C1C1",
"{  c #BFC4C4",
"}  c #B4C4CC",
"|  c #B8C6CC",
" . c #BCC9CE",
".. c #BBC7D2",
"X. c #B4CAD4",
"o. c #BACAD2",
"O. c #C2C3C3",
"+. c #C3CDCC",
"@. c #CBCCCB",
"#. c #D0D1CF",
"$. c #C5CFDD",
"%. c #C2D1DA",
"&. c #CBD7DE",
"*. c #CCD8DB",
"=. c #DBDADA",
"-. c #F3C4C7",
";. c #CBDAE5",
":. c #D5DEE3",
">. c #DAE3E4",
",. c #D3E6ED",
"<. c #DDE6EB",
"1. c #E2E3E3",
"2. c #E4EAED",
"3. c #EBEDEC",
"4. c #EFF9FB",
"5. c #F2F4F4",
"6. c #F5FBFB",
"7. c #F9FAFA",
"8. c #FDFDFD",
"9. c #FEFEFE",
/* pixels */
"V V V V V V V V V V V V V V V V V b b Z V V V V V V V V V b V V ",
"V V V V V V V V b C V V V V V b b Z b b V V V V V V V Z V Z V V ",
"V V V V V V V V b b g b V V V b V b b Z b V V V V V V V V V Z V ",
"V x z V x b V V b z b l V V b Z V x b b x V V V V V V V V V V V ",
"V x V x V V V V C b b C b b V V V V b V b V V V V V V V V V V V ",
"V V V V V V V V b C C b b I V V V V V V V V V V V V V V V V V V ",
"b V V V V V V V b b b b D b B v V b V V V V V V V V V V V V V V ",
"V V V V V V V V C b C b b b 7 0 b b V V V V V V V V V V V V V V ",
"V V V V V V V c c b b b b - E r 2 c j j v V V V V V b b b b b b ",
"V V V V Z V V & @ 3 c b v 1 P e O % % % 7 c v b b x v b b b b b ",
"V V V V V V b = >.6 X h > u F ! 7.7.7.6.H X < c l X * b b b b n ",
"V V V V V V V V + O.>.4 @.9.9.9.9.:.` :.7.5.Y   e O.* l C C b S ",
"V V V V V V V b = 8 1.9.&.<.9.9.9.9.9.:.I n / 8.{ * V V C b V V ",
"V V V V V V V # M 5.9.9.9.9.9.%.:.8.9.9.2.>.3.U h < V V b D V V ",
"V V V V V V V $ =.9.} 2.9.9.9.9.:.) :.9.9.2. .=.Y = V V S V S V ",
"V V V V V V V . @. .4.9.9.9.9.9.<.2.:.&.9.#.J  .P = V V V V V V ",
"V V V V V V # +.9.O.3.9.9.=.6.9.{ @.9.<.X.%.! Y Q * V V V V V V ",
"V V V V V V $ [ X.6.9.L =.{ d -.@.U o.! U } ~ w - V V V V V V V ",
"V V l b V V $  .P +.7.5.] & p a G | } Q T o.! 8 - V V b V V V V ",
"b l b l V V + u L ` *.>.r s f i N |  .Q W o.Q ;.P - V z V V V V ",
"V V V V V $ ] :.u } %.o...t : K ..o._ ' G X X 8 ,.W = b l V V V ",
"V V V V V % o o X X m o.;.$...$.;.' q X 5 B c 9 o o ; b V V V V ",
"V V V V S c n k k k > % % 4 R y % % 7 j B V D b j j v b V V V V ",
"V V V V V V b b b b z k , K y 9 c j v V b V V V b b V V V V V V ",
"V V V V V V V V V V V V < & 9 V V V V V V V V b V V V V V V V V ",
"V V V V V V V V V V V V j 0 b V V V V V V V V V V V V V V V V V ",
"V V V V V V V V V V z V V V V V V V V V V V V V V V V V V V S V ",
"V V x V V V V V V l z g V x V V V V V b V V V V V V V V V V V V ",
"V l b x x V V V V V V V V V b V V z b b z V V V V V V V V V V V ",
"V V V V V V V V V V V V V S V V V V V V V V V V V V V V V V V V ",
"V V V V V V V b V V V V S S S V V V V V V V V V V V V V V V V V ",
"V V V V V V V V V V V V V V V V V V V V V V V V V V V V V V V V "
};
