/* XPM */
static char *_7515d17994942d2a5631f3ca06644554wKp1nYM3c8uVYBj[] = {
/* columns rows colors chars-per-pixel */
"32 32 149 2 ",
"   c #050505",
".  c #0D0604",
"X  c #0D0906",
"o  c #070E0B",
"O  c #0C090A",
"+  c #170A09",
"@  c #0C0D10",
"#  c #0B1511",
"$  c #1D1110",
"%  c #1D1D14",
"&  c #3D1D15",
"*  c #301E19",
"=  c #14241C",
"-  c #2A271D",
";  c #2A2B1C",
":  c #38231D",
">  c #1B1C22",
",  c #162920",
"<  c #202027",
"1  c #22232B",
"2  c #2B272F",
"3  c #3D2325",
"4  c #2D2D37",
"5  c #2A2F3B",
"6  c #393938",
"7  c #472319",
"8  c #53291D",
"9  c #6E321E",
"0  c #443C2E",
"q  c #52362A",
"w  c #533C2E",
"e  c #563F32",
"r  c #7B3621",
"t  c #753C3E",
"y  c #3E4B3A",
"u  c #454136",
"i  c #524331",
"p  c #584032",
"a  c #644437",
"s  c #3F3741",
"d  c #453840",
"f  c #355847",
"g  c #3A4356",
"h  c #3D4558",
"j  c #39604E",
"k  c #2F6C54",
"l  c #396855",
"z  c #39745B",
"x  c #3F4B60",
"c  c #5E4549",
"v  c #494857",
"b  c #434558",
"n  c #4B4B5C",
"m  c #5D4D57",
"M  c #445259",
"N  c #47595D",
"B  c #495B5F",
"V  c #57515E",
"C  c #6F4643",
"Z  c #7C5C4A",
"A  c #685056",
"S  c #456B4A",
"D  c #53634F",
"F  c #566854",
"G  c #47745B",
"H  c #52715D",
"J  c #656857",
"K  c #70725F",
"L  c #4F6B68",
"P  c #4D7166",
"I  c #427860",
"U  c #5B706F",
"Y  c #577A73",
"T  c #676978",
"R  c #6F717D",
"E  c #657A7D",
"W  c #973C26",
"Q  c #AF5134",
"!  c #A9533A",
"~  c #B5593F",
"^  c #844746",
"/  c #8C5549",
"(  c #92564C",
")  c #895954",
"_  c #965E57",
"`  c #85624F",
"'  c #9E7854",
"]  c #B66654",
"[  c #A27D56",
"{  c #867572",
"}  c #C96C54",
"|  c #D07057",
" . c #E4704B",
".. c #ED7856",
"X. c #F47A56",
"o. c #388C6C",
"O. c #3F9171",
"+. c #4A8367",
"@. c #57866A",
"#. c #528C6B",
"$. c #528A75",
"%. c #5C8D74",
"&. c #439373",
"*. c #4B9576",
"=. c #4C9979",
"-. c #5D9377",
";. c #55957B",
":. c #559E7E",
">. c #599C7D",
",. c #968550",
"<. c #9B8B63",
"1. c #CD8D6A",
"2. c #D0926C",
"3. c #DC9B73",
"4. c #CFB86C",
"5. c #E8A678",
"6. c #6F7782",
"7. c #75788B",
"8. c #7C7F8F",
"9. c #77828D",
"0. c #7F8292",
"q. c #58A080",
"w. c #60A488",
"e. c #6AA78B",
"r. c #6DA88C",
"t. c #71AA8F",
"y. c #7CAB94",
"u. c #8A8380",
"i. c #8D92A2",
"p. c #9A9AA2",
"a. c #AAABB3",
"s. c #B1B1B8",
"d. c #DDAD87",
"f. c #E7B58E",
"g. c #F8C69B",
"h. c #FEE3BF",
"j. c #B0B7C7",
"k. c #BBC4D5",
"l. c #BCCBDE",
"z. c #C2C4C8",
"x. c #C3CBDB",
"c. c #CAD3E1",
"v. c #D1D6E3",
"b. c #D4DAE6",
"n. c #D8DDE7",
"m. c #D8DDE9",
"M. c #E2E5ED",
"N. c #F5F6F9",
"B. c #FEFEFE",
/* pixels */
"q.q.q.q.q.q.q.q.q.q.q.q.q.q.q.q.q.q.q.q.q.q.q.q.q.q.q.q.q.q.q.q.",
"q.q.q.q.q.q.q.q.q.q.q.q.q.q.:.q.q.q.q.q.q.q.q.q.q.q.q.q.q.w.q.q.",
"q.q.q.q.q.q.q.q.:.q.o.>.q.q.q.q.q.:.q.q.q.q.q.q.q.q.q.q.q.q.w.q.",
"q.=.=.:.=.q.q.q.q.&.>.&.q.q.q.q.q.=.q.:.=.q.q.q.q.q.q.:.q.q.q.q.",
"q.=.q.=.q.q.q.q.q.q.q.q.q.q.q.q.q.q.:.M $.q.q.q.q.q.q.q.q.q.q.q.",
"q.q.q.q.q.q.:.q.q.q.q.q.q.y.N B N B M z.E $.q.q.q.q.q.q.q.q.q.q.",
"q.q.q.q.q.q.q.q.q.q.:.;.U L s.s.s.i.a.n.R B $.q.q.q.q.q.q.q.q.q.",
":.q.q.q.q.q.q.q.q.q.;.Y 0.p.B.B.B.n.M.x.i.8.E ;.q.q.q.q.q.q.q.q.",
"q.q.q.q.q.q.q.q.q.>.Y 8.m.B.B.B.B.B.v.x.x.j.9.$.q.q.q.q.q.q.q.q.",
"q.q.q.q.w.q.q.q.q.l 6.b.B.B.B.B.B.B.N.c.x.6.P q.q.q.q.q.q.q.q.q.",
"q.q.q.q.q.q.q.q.o.S J c.B.B.B.B.B.N.l.N.v.J S q.q.>.O.q.:.q.q.q.",
"q.q.q.q.q.q.q.q.@.6 6.x.k.B.B.B.k.j.N.x.x.7.0 +.q.&.q.&.q.q.q.q.",
"q.q.q.q.q.q.q.q.#.u b T x.x.l.x.c.l.x.c.T b u #.q.q.q.q.q.q.q.q.",
"q.q.q.q.q.q.q.q.+.1 b n n V X.x x ..V V n b 1 I q.>.q.q.q.r.q.q.",
"q.q.q.q.q.q.q.q.+.e ` > n v A } } A n n , Z p G q.q.q.q.r.q.r.q.",
"q.q.q.q.q.q.q.q.*.y q 3 < n b ) ) b n , 3 w u *.q.q.q.q.q.q.q.q.",
"q.q.q.q.q.q.:.q.q.f * / w R s <.u.4 { e / : y :.:.:.q.q.q.q.q.q.",
"q.q.q.q.q.q.q.q.q.j 0 1.3.f.  h.h.$ d.3.1.i k :.q.:.q.q.q.:.q.q.",
"q.q.&.>.q.q.q.q.q.:.P ( 2.2.t g.g.t 1.2./ H >.>.q.q.q.q.q.q.q.q.",
":.&.>.&.q.q.q.q.q.j 7 ~   ^ 5.3.3.5.^ O Q 8 M >.q.q.q.=.q.q.q.q.",
"q.q.q.q.q.q.q.q.%.' <.d b   O X O O   d x <.[ %.q.:.=.:.&.q.q.q.",
"q.q.q.q.:.r.q.q.%.[ 4.<.O h g  ...d b @ ,.4.[ %.q.q.:.q.q.q.q.q.",
"q.q.q.q.r.w.t.q.q.K a % . | g m m g } + $ a K >.q.q.q.q.q.q.q.q.",
"q.q.q.q.q.q.q.q.q.-.F - s Q ] ] ] ] ! d 2 D -.q.q.q.q.q.q.q.q.q.",
"q.q.q.q.q.q.q.q.q.q.z = 2 a _ W W _ C 2 = G q.q.:.q.q.q.q.q.q.q.",
"q.q.q.q.q.q.q.q.q.q.z . & C 5 i i 4 c : . l q.q.q.q.q.q.q.q.q.q.",
"q.q.q.q.q.q.q.q.q.q.k ; r r = q.:.= 9 r ; G q.q.q.q.q.q.q.q.e.q.",
"q.q.=.q.q.q.q.q.q.O.=.z   o q.q.q.q.#   G :.q.q.q.q.q.q.q.q.q.q.",
"q.&.:.=.=.q.q.q.q.:.q.q.q.q.q.q.q.=.:.:.&.q.q.q.q.q.q.q.q.q.q.q.",
"q.q.q.q.q.q.q.q.q.q.q.q.q.r.q.q.q.q.q.q.q.q.q.q.q.q.q.q.q.q.q.q.",
"q.q.q.q.q.q.q.:.q.q.q.q.r.r.r.q.q.q.q.q.q.q.q.q.q.q.q.q.q.q.q.q.",
"q.q.q.q.q.q.q.q.q.q.q.q.q.:.q.q.:.q.q.q.q.q.q.q.q.q.q.q.q.q.q.q."
};
