/* XPM */
static char *fd26a28e1b5046958371cfde8de3923fR85lt7AShjk1GNyu[] = {
/* columns rows colors chars-per-pixel */
"32 32 128 2 ",
"   c #354700",
".  c #364A00",
"X  c #394C00",
"o  c #385404",
"O  c #395807",
"+  c #375109",
"@  c #395D0C",
"#  c #335F16",
"$  c #39600E",
"%  c #396512",
"&  c #396A16",
"*  c #36631E",
"=  c #39601C",
"-  c #376C1E",
";  c #396C18",
":  c #38721B",
">  c #3B6524",
",  c #3A6B21",
"<  c #397621",
"1  c #377C26",
"2  c #397924",
"3  c #35722E",
"4  c #387F29",
"5  c #357232",
"6  c #3F7336",
"7  c #3D763A",
"8  c #425E0E",
"9  c #44600F",
"0  c #466513",
"q  c #4C6B16",
"w  c #466919",
"e  c #4C6F1C",
"r  c #4D711D",
"t  c #4B7736",
"y  c #40753A",
"u  c #457C3C",
"i  c #497D3D",
"p  c #3E7F43",
"a  c #36862E",
"s  c #38852E",
"d  c #36882F",
"f  c #38882F",
"g  c #368A32",
"h  c #3A8931",
"j  c #40862E",
"k  c #51802B",
"l  c #428E35",
"z  c #5D8A33",
"x  c #439137",
"c  c #459937",
"v  c #46943A",
"b  c #4B963B",
"n  c #4E993E",
"m  c #649237",
"M  c #388458",
"N  c #368A66",
"B  c #44834E",
"V  c #48824F",
"C  c #52874F",
"Z  c #559E42",
"A  c #448755",
"S  c #488451",
"D  c #448C52",
"F  c #488855",
"G  c #448B5B",
"H  c #518850",
"J  c #49985F",
"K  c #519A51",
"L  c #649A42",
"P  c #699B42",
"I  c #56A045",
"U  c #5AA246",
"Y  c #5BB648",
"T  c #64A94C",
"R  c #77A744",
"E  c #78A944",
"W  c #75AC4D",
"Q  c #63B14C",
"!  c #62BF4B",
"~  c #6AAE51",
"^  c #72B556",
"/  c #72BF56",
"(  c #75B759",
")  c #76B959",
"_  c #7DBE5E",
"`  c #478F63",
"'  c #488F62",
"]  c #499265",
"[  c #4B9A64",
"{  c #4C946B",
"}  c #4D9A6B",
"|  c #50946B",
" . c #449474",
".. c #499777",
"X. c #4D9979",
"o. c #529771",
"O. c #549A75",
"+. c #559E7D",
"@. c #57A07F",
"#. c #58A07F",
"$. c #7FBF60",
"%. c #63A379",
"&. c #64C34D",
"*. c #75C158",
"=. c #7FC05F",
"-. c #7FC060",
";. c #80BF60",
":. c #82C261",
">. c #86C964",
",. c #8ACB66",
"<. c #8CCF69",
"1. c #8ED16A",
"2. c #92D46B",
"3. c #96DA6E",
"4. c #96DC70",
"5. c #99DE71",
"6. c #9CE172",
"7. c #9EE874",
"8. c #A1E675",
"9. c #A2E977",
"0. c #A6EE79",
"q. c #A8EE7A",
"w. c #ABF37C",
"e. c #AFF87F",
"r. c #58A080",
"t. c #60A488",
"y. c #6CA88C",
"u. c #B1FA81",
/* pixels */
"r.r.r.#.r.r.r.r.r.r.r.+.C S C C H C H C o.r.r.r.r.r.r.r.r.r.r.r.",
"r.r.r.r.r.r.r.r.r.r.r.O.  X   X . . . . 7 r.r.r.r.r.r.r.r.t.r.r.",
"r.r.r.r.r.r.r.r.+.r.N | 9 0 0 q q q 0 8 u O.+.r.r.r.r.r.t.r.r.r.",
"r.X...r.X.r.@.r.r.` + w _ ;.q.q.w.q.2._ L + > +.r.r.r.r.r.r.r.r.",
"r.X.r.X.r.r.r.r.+.| . 0 :.:.w.u.u.u.3.:.P . = r.r.#.+.r.r.r.r.r.",
"r.r.r.r.+.B y D [ K P W 9.7.1.1.1.1.5.0.<.P L J [ i t +.r.r.r.r.",
"r.r.r.r.r.> X : f Z :.<.u.u.:.$._ _ 5.u.8.:.) f s o . ' r.+.r.r.",
"r.r.+.o.{ , @ 2 h I :.,.u.w.:.:.;._ 5.u.8.;.( h f % $ F | +.r.r.",
"r.r.+.+ X 4 h f a Z :.,.u.w.:.:.$._ 6.u.8._ ( h f f h @   V r.r.",
"r.r.+.@ o 4 h h f Z :.,.e.w.:.:.:.:.5.u.7.;.( h s s l $ X S r.r.",
"r.r.+.a s ~ ) n a Z :.:.>.>.0.w.w.w.3.:.:.:.( h h ^ ) b 1 [ r.r.",
"r.r.+.g h ^ :.Z a Z :.:._ :.e.e.e.e.3.;.;.:.( h h ) :.n a } r.r.",
"r.r.@.g g ^ :.Z a Z :.;.:.:.w.e.e.u.3._ =.:.( h h ( :.Z a } r.r.",
"r.r.r.g h ^ -.Z a Z :.:.;.:.e.e.u.u.3.;.=.:.( h h ( ;.n f %.r.r.",
"r.r.+.v b _ >.Z a n ) ) ;.:.q.w.q.w.2.$._ ) ^ f h _ ,.I b [ y.r.",
"` . 0 q.u.u.u.Q a f h v :.:.:.:.-.:.;.:.~ f f h h 8.u.u.u.R . y ",
"' X 0 q.u.e.e.Q a f f v >.:.:.;.:.:.:.:.~ a f a h 7.u.u.u.E X 7 ",
"] X 8 >.1.w.u.,.~ Z s h b b b b b b b n v f l ~ ^ 0.u.3.1.m . 6 ",
"] X 8 _ :.q.e.2.;.T a a s f s s f f f f a f x -.:.w.u.1.:.z X 6 ",
"` X O ~ ~ 4.8.,.;.~ c v f f f f f f f f g h l $.:.5.9._ ~ k . 6 ",
"] X O f f ^ ;.;.;.*.&.Y f f f f f f f f h f l $.:._ ;.n d ; X 6 ",
"] X o s f ^ _ _ $./ ! Y h h h l h h h h h f l _ _ _ _ n a ; X 6 ",
"] X X O @ s x l l x h n ) ( ) ( ) ) ) _ T a f l l x x & o o X 6 ",
"' X X X X 4 h g g h a v :.:._ :.;.;.;.;.~ s f h h g g @ X X X 6 ",
"O.A A A A - & & ; < g v :.:.3.5.5.5.,.:.~ a a ; & & & p A F A { ",
"r.r.r.r.r.* . X X % g v :.:.e.u.u.u.3.:.~ a 4 . X X X ' r.r.r.r.",
"r.r.r.r.+.5 * * = - 4 j ) _ 0.q.q.w.<.( U 4 1 * * * * O.t.r.r.r.",
"r.r.X.r.r.@.@.r.r.M X @ h h _ :.:.:.I h < o # r.@.@.@.r.r.r.r.r.",
"r. .+.X...r.r.r.r.` X @ g h _ -.:.:.I f : X * +.r.r.r.r.r.r.r.r.",
"r.r.r.r.r.r.r.r.r.+.{ G $ $ e r r r 0 $ 3 { { +.r.r.r.r.r.r.r.r.",
"r.r.r.r.r.r.r.r.r.r.r.O.X X X . X X X . 3 r.r.r.r.r.r.r.r.r.r.r.",
"r.r.r.r.r.r.r.r.r.r.r.+.6 7 7 7 7 7 7 7 G r.r.r.r.r.r.r.r.r.r.r."
};
